%TF.GenerationSoftware,KiCad,Pcbnew,9.0.6*%
%TF.CreationDate,2025-12-25T12:08:50+01:00*%
%TF.ProjectId,mini_led_button,6d696e69-5f6c-4656-945f-627574746f6e,rev?*%
%TF.SameCoordinates,Original*%
%TF.FileFunction,Legend,Top*%
%TF.FilePolarity,Positive*%
%FSLAX46Y46*%
G04 Gerber Fmt 4.6, Leading zero omitted, Abs format (unit mm)*
G04 Created by KiCad (PCBNEW 9.0.6) date 2025-12-25 12:08:50*
%MOMM*%
%LPD*%
G01*
G04 APERTURE LIST*
%ADD10C,0.200000*%
%ADD11C,0.150000*%
%ADD12C,0.120000*%
G04 APERTURE END LIST*
D10*
X159536816Y-97867219D02*
X159870149Y-98867219D01*
X159870149Y-98867219D02*
X160203482Y-97867219D01*
X161108244Y-98771980D02*
X161060625Y-98819600D01*
X161060625Y-98819600D02*
X160917768Y-98867219D01*
X160917768Y-98867219D02*
X160822530Y-98867219D01*
X160822530Y-98867219D02*
X160679673Y-98819600D01*
X160679673Y-98819600D02*
X160584435Y-98724361D01*
X160584435Y-98724361D02*
X160536816Y-98629123D01*
X160536816Y-98629123D02*
X160489197Y-98438647D01*
X160489197Y-98438647D02*
X160489197Y-98295790D01*
X160489197Y-98295790D02*
X160536816Y-98105314D01*
X160536816Y-98105314D02*
X160584435Y-98010076D01*
X160584435Y-98010076D02*
X160679673Y-97914838D01*
X160679673Y-97914838D02*
X160822530Y-97867219D01*
X160822530Y-97867219D02*
X160917768Y-97867219D01*
X160917768Y-97867219D02*
X161060625Y-97914838D01*
X161060625Y-97914838D02*
X161108244Y-97962457D01*
X162108244Y-98771980D02*
X162060625Y-98819600D01*
X162060625Y-98819600D02*
X161917768Y-98867219D01*
X161917768Y-98867219D02*
X161822530Y-98867219D01*
X161822530Y-98867219D02*
X161679673Y-98819600D01*
X161679673Y-98819600D02*
X161584435Y-98724361D01*
X161584435Y-98724361D02*
X161536816Y-98629123D01*
X161536816Y-98629123D02*
X161489197Y-98438647D01*
X161489197Y-98438647D02*
X161489197Y-98295790D01*
X161489197Y-98295790D02*
X161536816Y-98105314D01*
X161536816Y-98105314D02*
X161584435Y-98010076D01*
X161584435Y-98010076D02*
X161679673Y-97914838D01*
X161679673Y-97914838D02*
X161822530Y-97867219D01*
X161822530Y-97867219D02*
X161917768Y-97867219D01*
X161917768Y-97867219D02*
X162060625Y-97914838D01*
X162060625Y-97914838D02*
X162108244Y-97962457D01*
X159679673Y-101367219D02*
X159679673Y-100367219D01*
X160155863Y-101367219D02*
X160155863Y-100367219D01*
X160155863Y-100367219D02*
X160727291Y-101367219D01*
X160727291Y-101367219D02*
X160727291Y-100367219D01*
X159870149Y-102867219D02*
X160060625Y-102867219D01*
X160060625Y-102867219D02*
X160155863Y-102914838D01*
X160155863Y-102914838D02*
X160251101Y-103010076D01*
X160251101Y-103010076D02*
X160298720Y-103200552D01*
X160298720Y-103200552D02*
X160298720Y-103533885D01*
X160298720Y-103533885D02*
X160251101Y-103724361D01*
X160251101Y-103724361D02*
X160155863Y-103819600D01*
X160155863Y-103819600D02*
X160060625Y-103867219D01*
X160060625Y-103867219D02*
X159870149Y-103867219D01*
X159870149Y-103867219D02*
X159774911Y-103819600D01*
X159774911Y-103819600D02*
X159679673Y-103724361D01*
X159679673Y-103724361D02*
X159632054Y-103533885D01*
X159632054Y-103533885D02*
X159632054Y-103200552D01*
X159632054Y-103200552D02*
X159679673Y-103010076D01*
X159679673Y-103010076D02*
X159774911Y-102914838D01*
X159774911Y-102914838D02*
X159870149Y-102867219D01*
X160727292Y-102867219D02*
X160727292Y-103676742D01*
X160727292Y-103676742D02*
X160774911Y-103771980D01*
X160774911Y-103771980D02*
X160822530Y-103819600D01*
X160822530Y-103819600D02*
X160917768Y-103867219D01*
X160917768Y-103867219D02*
X161108244Y-103867219D01*
X161108244Y-103867219D02*
X161203482Y-103819600D01*
X161203482Y-103819600D02*
X161251101Y-103771980D01*
X161251101Y-103771980D02*
X161298720Y-103676742D01*
X161298720Y-103676742D02*
X161298720Y-102867219D01*
X161632054Y-102867219D02*
X162203482Y-102867219D01*
X161917768Y-103867219D02*
X161917768Y-102867219D01*
X160203482Y-105414838D02*
X160108244Y-105367219D01*
X160108244Y-105367219D02*
X159965387Y-105367219D01*
X159965387Y-105367219D02*
X159822530Y-105414838D01*
X159822530Y-105414838D02*
X159727292Y-105510076D01*
X159727292Y-105510076D02*
X159679673Y-105605314D01*
X159679673Y-105605314D02*
X159632054Y-105795790D01*
X159632054Y-105795790D02*
X159632054Y-105938647D01*
X159632054Y-105938647D02*
X159679673Y-106129123D01*
X159679673Y-106129123D02*
X159727292Y-106224361D01*
X159727292Y-106224361D02*
X159822530Y-106319600D01*
X159822530Y-106319600D02*
X159965387Y-106367219D01*
X159965387Y-106367219D02*
X160060625Y-106367219D01*
X160060625Y-106367219D02*
X160203482Y-106319600D01*
X160203482Y-106319600D02*
X160251101Y-106271980D01*
X160251101Y-106271980D02*
X160251101Y-105938647D01*
X160251101Y-105938647D02*
X160060625Y-105938647D01*
X160679673Y-106367219D02*
X160679673Y-105367219D01*
X160679673Y-105367219D02*
X161251101Y-106367219D01*
X161251101Y-106367219D02*
X161251101Y-105367219D01*
X161727292Y-106367219D02*
X161727292Y-105367219D01*
X161727292Y-105367219D02*
X161965387Y-105367219D01*
X161965387Y-105367219D02*
X162108244Y-105414838D01*
X162108244Y-105414838D02*
X162203482Y-105510076D01*
X162203482Y-105510076D02*
X162251101Y-105605314D01*
X162251101Y-105605314D02*
X162298720Y-105795790D01*
X162298720Y-105795790D02*
X162298720Y-105938647D01*
X162298720Y-105938647D02*
X162251101Y-106129123D01*
X162251101Y-106129123D02*
X162203482Y-106224361D01*
X162203482Y-106224361D02*
X162108244Y-106319600D01*
X162108244Y-106319600D02*
X161965387Y-106367219D01*
X161965387Y-106367219D02*
X161727292Y-106367219D01*
X135179673Y-88867219D02*
X135179673Y-87867219D01*
X135179673Y-87867219D02*
X135513006Y-88581504D01*
X135513006Y-88581504D02*
X135846339Y-87867219D01*
X135846339Y-87867219D02*
X135846339Y-88867219D01*
X136322530Y-88867219D02*
X136322530Y-88200552D01*
X136322530Y-87867219D02*
X136274911Y-87914838D01*
X136274911Y-87914838D02*
X136322530Y-87962457D01*
X136322530Y-87962457D02*
X136370149Y-87914838D01*
X136370149Y-87914838D02*
X136322530Y-87867219D01*
X136322530Y-87867219D02*
X136322530Y-87962457D01*
X136798720Y-88200552D02*
X136798720Y-88867219D01*
X136798720Y-88295790D02*
X136846339Y-88248171D01*
X136846339Y-88248171D02*
X136941577Y-88200552D01*
X136941577Y-88200552D02*
X137084434Y-88200552D01*
X137084434Y-88200552D02*
X137179672Y-88248171D01*
X137179672Y-88248171D02*
X137227291Y-88343409D01*
X137227291Y-88343409D02*
X137227291Y-88867219D01*
X137703482Y-88867219D02*
X137703482Y-88200552D01*
X137703482Y-87867219D02*
X137655863Y-87914838D01*
X137655863Y-87914838D02*
X137703482Y-87962457D01*
X137703482Y-87962457D02*
X137751101Y-87914838D01*
X137751101Y-87914838D02*
X137703482Y-87867219D01*
X137703482Y-87867219D02*
X137703482Y-87962457D01*
X139417767Y-88867219D02*
X138941577Y-88867219D01*
X138941577Y-88867219D02*
X138941577Y-87867219D01*
X140132053Y-88819600D02*
X140036815Y-88867219D01*
X140036815Y-88867219D02*
X139846339Y-88867219D01*
X139846339Y-88867219D02*
X139751101Y-88819600D01*
X139751101Y-88819600D02*
X139703482Y-88724361D01*
X139703482Y-88724361D02*
X139703482Y-88343409D01*
X139703482Y-88343409D02*
X139751101Y-88248171D01*
X139751101Y-88248171D02*
X139846339Y-88200552D01*
X139846339Y-88200552D02*
X140036815Y-88200552D01*
X140036815Y-88200552D02*
X140132053Y-88248171D01*
X140132053Y-88248171D02*
X140179672Y-88343409D01*
X140179672Y-88343409D02*
X140179672Y-88438647D01*
X140179672Y-88438647D02*
X139703482Y-88533885D01*
X141036815Y-88867219D02*
X141036815Y-87867219D01*
X141036815Y-88819600D02*
X140941577Y-88867219D01*
X140941577Y-88867219D02*
X140751101Y-88867219D01*
X140751101Y-88867219D02*
X140655863Y-88819600D01*
X140655863Y-88819600D02*
X140608244Y-88771980D01*
X140608244Y-88771980D02*
X140560625Y-88676742D01*
X140560625Y-88676742D02*
X140560625Y-88391028D01*
X140560625Y-88391028D02*
X140608244Y-88295790D01*
X140608244Y-88295790D02*
X140655863Y-88248171D01*
X140655863Y-88248171D02*
X140751101Y-88200552D01*
X140751101Y-88200552D02*
X140941577Y-88200552D01*
X140941577Y-88200552D02*
X141036815Y-88248171D01*
X142608244Y-88343409D02*
X142751101Y-88391028D01*
X142751101Y-88391028D02*
X142798720Y-88438647D01*
X142798720Y-88438647D02*
X142846339Y-88533885D01*
X142846339Y-88533885D02*
X142846339Y-88676742D01*
X142846339Y-88676742D02*
X142798720Y-88771980D01*
X142798720Y-88771980D02*
X142751101Y-88819600D01*
X142751101Y-88819600D02*
X142655863Y-88867219D01*
X142655863Y-88867219D02*
X142274911Y-88867219D01*
X142274911Y-88867219D02*
X142274911Y-87867219D01*
X142274911Y-87867219D02*
X142608244Y-87867219D01*
X142608244Y-87867219D02*
X142703482Y-87914838D01*
X142703482Y-87914838D02*
X142751101Y-87962457D01*
X142751101Y-87962457D02*
X142798720Y-88057695D01*
X142798720Y-88057695D02*
X142798720Y-88152933D01*
X142798720Y-88152933D02*
X142751101Y-88248171D01*
X142751101Y-88248171D02*
X142703482Y-88295790D01*
X142703482Y-88295790D02*
X142608244Y-88343409D01*
X142608244Y-88343409D02*
X142274911Y-88343409D01*
X143132054Y-88200552D02*
X143513006Y-88200552D01*
X143274911Y-87867219D02*
X143274911Y-88724361D01*
X143274911Y-88724361D02*
X143322530Y-88819600D01*
X143322530Y-88819600D02*
X143417768Y-88867219D01*
X143417768Y-88867219D02*
X143513006Y-88867219D01*
X143846340Y-88200552D02*
X143846340Y-88867219D01*
X143846340Y-88295790D02*
X143893959Y-88248171D01*
X143893959Y-88248171D02*
X143989197Y-88200552D01*
X143989197Y-88200552D02*
X144132054Y-88200552D01*
X144132054Y-88200552D02*
X144227292Y-88248171D01*
X144227292Y-88248171D02*
X144274911Y-88343409D01*
X144274911Y-88343409D02*
X144274911Y-88867219D01*
X145417769Y-88200552D02*
X145655864Y-88867219D01*
X145655864Y-88867219D02*
X145893959Y-88200552D01*
X146798721Y-88867219D02*
X146227293Y-88867219D01*
X146513007Y-88867219D02*
X146513007Y-87867219D01*
X146513007Y-87867219D02*
X146417769Y-88010076D01*
X146417769Y-88010076D02*
X146322531Y-88105314D01*
X146322531Y-88105314D02*
X146227293Y-88152933D01*
X147227293Y-88771980D02*
X147274912Y-88819600D01*
X147274912Y-88819600D02*
X147227293Y-88867219D01*
X147227293Y-88867219D02*
X147179674Y-88819600D01*
X147179674Y-88819600D02*
X147227293Y-88771980D01*
X147227293Y-88771980D02*
X147227293Y-88867219D01*
X147893959Y-87867219D02*
X147989197Y-87867219D01*
X147989197Y-87867219D02*
X148084435Y-87914838D01*
X148084435Y-87914838D02*
X148132054Y-87962457D01*
X148132054Y-87962457D02*
X148179673Y-88057695D01*
X148179673Y-88057695D02*
X148227292Y-88248171D01*
X148227292Y-88248171D02*
X148227292Y-88486266D01*
X148227292Y-88486266D02*
X148179673Y-88676742D01*
X148179673Y-88676742D02*
X148132054Y-88771980D01*
X148132054Y-88771980D02*
X148084435Y-88819600D01*
X148084435Y-88819600D02*
X147989197Y-88867219D01*
X147989197Y-88867219D02*
X147893959Y-88867219D01*
X147893959Y-88867219D02*
X147798721Y-88819600D01*
X147798721Y-88819600D02*
X147751102Y-88771980D01*
X147751102Y-88771980D02*
X147703483Y-88676742D01*
X147703483Y-88676742D02*
X147655864Y-88486266D01*
X147655864Y-88486266D02*
X147655864Y-88248171D01*
X147655864Y-88248171D02*
X147703483Y-88057695D01*
X147703483Y-88057695D02*
X147751102Y-87962457D01*
X147751102Y-87962457D02*
X147798721Y-87914838D01*
X147798721Y-87914838D02*
X147893959Y-87867219D01*
X149417769Y-88486266D02*
X150179674Y-88486266D01*
X151893959Y-88867219D02*
X151417769Y-88867219D01*
X151417769Y-88867219D02*
X151417769Y-87867219D01*
X152608245Y-88819600D02*
X152513007Y-88867219D01*
X152513007Y-88867219D02*
X152322531Y-88867219D01*
X152322531Y-88867219D02*
X152227293Y-88819600D01*
X152227293Y-88819600D02*
X152179674Y-88724361D01*
X152179674Y-88724361D02*
X152179674Y-88343409D01*
X152179674Y-88343409D02*
X152227293Y-88248171D01*
X152227293Y-88248171D02*
X152322531Y-88200552D01*
X152322531Y-88200552D02*
X152513007Y-88200552D01*
X152513007Y-88200552D02*
X152608245Y-88248171D01*
X152608245Y-88248171D02*
X152655864Y-88343409D01*
X152655864Y-88343409D02*
X152655864Y-88438647D01*
X152655864Y-88438647D02*
X152179674Y-88533885D01*
X153227293Y-88867219D02*
X153132055Y-88819600D01*
X153132055Y-88819600D02*
X153084436Y-88771980D01*
X153084436Y-88771980D02*
X153036817Y-88676742D01*
X153036817Y-88676742D02*
X153036817Y-88391028D01*
X153036817Y-88391028D02*
X153084436Y-88295790D01*
X153084436Y-88295790D02*
X153132055Y-88248171D01*
X153132055Y-88248171D02*
X153227293Y-88200552D01*
X153227293Y-88200552D02*
X153370150Y-88200552D01*
X153370150Y-88200552D02*
X153465388Y-88248171D01*
X153465388Y-88248171D02*
X153513007Y-88295790D01*
X153513007Y-88295790D02*
X153560626Y-88391028D01*
X153560626Y-88391028D02*
X153560626Y-88676742D01*
X153560626Y-88676742D02*
X153513007Y-88771980D01*
X153513007Y-88771980D02*
X153465388Y-88819600D01*
X153465388Y-88819600D02*
X153370150Y-88867219D01*
X153370150Y-88867219D02*
X153227293Y-88867219D01*
X138536816Y-111867219D02*
X139108244Y-111867219D01*
X138822530Y-112867219D02*
X138822530Y-111867219D01*
X139441578Y-112867219D02*
X139441578Y-111867219D01*
X139870149Y-112867219D02*
X139870149Y-112343409D01*
X139870149Y-112343409D02*
X139822530Y-112248171D01*
X139822530Y-112248171D02*
X139727292Y-112200552D01*
X139727292Y-112200552D02*
X139584435Y-112200552D01*
X139584435Y-112200552D02*
X139489197Y-112248171D01*
X139489197Y-112248171D02*
X139441578Y-112295790D01*
X140774911Y-112867219D02*
X140774911Y-112343409D01*
X140774911Y-112343409D02*
X140727292Y-112248171D01*
X140727292Y-112248171D02*
X140632054Y-112200552D01*
X140632054Y-112200552D02*
X140441578Y-112200552D01*
X140441578Y-112200552D02*
X140346340Y-112248171D01*
X140774911Y-112819600D02*
X140679673Y-112867219D01*
X140679673Y-112867219D02*
X140441578Y-112867219D01*
X140441578Y-112867219D02*
X140346340Y-112819600D01*
X140346340Y-112819600D02*
X140298721Y-112724361D01*
X140298721Y-112724361D02*
X140298721Y-112629123D01*
X140298721Y-112629123D02*
X140346340Y-112533885D01*
X140346340Y-112533885D02*
X140441578Y-112486266D01*
X140441578Y-112486266D02*
X140679673Y-112486266D01*
X140679673Y-112486266D02*
X140774911Y-112438647D01*
X141251102Y-112200552D02*
X141251102Y-112867219D01*
X141251102Y-112295790D02*
X141298721Y-112248171D01*
X141298721Y-112248171D02*
X141393959Y-112200552D01*
X141393959Y-112200552D02*
X141536816Y-112200552D01*
X141536816Y-112200552D02*
X141632054Y-112248171D01*
X141632054Y-112248171D02*
X141679673Y-112343409D01*
X141679673Y-112343409D02*
X141679673Y-112867219D01*
X142155864Y-112867219D02*
X142155864Y-111867219D01*
X142251102Y-112486266D02*
X142536816Y-112867219D01*
X142536816Y-112200552D02*
X142155864Y-112581504D01*
X142917769Y-112819600D02*
X143013007Y-112867219D01*
X143013007Y-112867219D02*
X143203483Y-112867219D01*
X143203483Y-112867219D02*
X143298721Y-112819600D01*
X143298721Y-112819600D02*
X143346340Y-112724361D01*
X143346340Y-112724361D02*
X143346340Y-112676742D01*
X143346340Y-112676742D02*
X143298721Y-112581504D01*
X143298721Y-112581504D02*
X143203483Y-112533885D01*
X143203483Y-112533885D02*
X143060626Y-112533885D01*
X143060626Y-112533885D02*
X142965388Y-112486266D01*
X142965388Y-112486266D02*
X142917769Y-112391028D01*
X142917769Y-112391028D02*
X142917769Y-112343409D01*
X142917769Y-112343409D02*
X142965388Y-112248171D01*
X142965388Y-112248171D02*
X143060626Y-112200552D01*
X143060626Y-112200552D02*
X143203483Y-112200552D01*
X143203483Y-112200552D02*
X143298721Y-112248171D01*
X144536817Y-112867219D02*
X144536817Y-111867219D01*
X144536817Y-111867219D02*
X144917769Y-111867219D01*
X144917769Y-111867219D02*
X145013007Y-111914838D01*
X145013007Y-111914838D02*
X145060626Y-111962457D01*
X145060626Y-111962457D02*
X145108245Y-112057695D01*
X145108245Y-112057695D02*
X145108245Y-112200552D01*
X145108245Y-112200552D02*
X145060626Y-112295790D01*
X145060626Y-112295790D02*
X145013007Y-112343409D01*
X145013007Y-112343409D02*
X144917769Y-112391028D01*
X144917769Y-112391028D02*
X144536817Y-112391028D01*
X146108245Y-112771980D02*
X146060626Y-112819600D01*
X146060626Y-112819600D02*
X145917769Y-112867219D01*
X145917769Y-112867219D02*
X145822531Y-112867219D01*
X145822531Y-112867219D02*
X145679674Y-112819600D01*
X145679674Y-112819600D02*
X145584436Y-112724361D01*
X145584436Y-112724361D02*
X145536817Y-112629123D01*
X145536817Y-112629123D02*
X145489198Y-112438647D01*
X145489198Y-112438647D02*
X145489198Y-112295790D01*
X145489198Y-112295790D02*
X145536817Y-112105314D01*
X145536817Y-112105314D02*
X145584436Y-112010076D01*
X145584436Y-112010076D02*
X145679674Y-111914838D01*
X145679674Y-111914838D02*
X145822531Y-111867219D01*
X145822531Y-111867219D02*
X145917769Y-111867219D01*
X145917769Y-111867219D02*
X146060626Y-111914838D01*
X146060626Y-111914838D02*
X146108245Y-111962457D01*
X146870150Y-112343409D02*
X147013007Y-112391028D01*
X147013007Y-112391028D02*
X147060626Y-112438647D01*
X147060626Y-112438647D02*
X147108245Y-112533885D01*
X147108245Y-112533885D02*
X147108245Y-112676742D01*
X147108245Y-112676742D02*
X147060626Y-112771980D01*
X147060626Y-112771980D02*
X147013007Y-112819600D01*
X147013007Y-112819600D02*
X146917769Y-112867219D01*
X146917769Y-112867219D02*
X146536817Y-112867219D01*
X146536817Y-112867219D02*
X146536817Y-111867219D01*
X146536817Y-111867219D02*
X146870150Y-111867219D01*
X146870150Y-111867219D02*
X146965388Y-111914838D01*
X146965388Y-111914838D02*
X147013007Y-111962457D01*
X147013007Y-111962457D02*
X147060626Y-112057695D01*
X147060626Y-112057695D02*
X147060626Y-112152933D01*
X147060626Y-112152933D02*
X147013007Y-112248171D01*
X147013007Y-112248171D02*
X146965388Y-112295790D01*
X146965388Y-112295790D02*
X146870150Y-112343409D01*
X146870150Y-112343409D02*
X146536817Y-112343409D01*
X147441579Y-111867219D02*
X147679674Y-112867219D01*
X147679674Y-112867219D02*
X147870150Y-112152933D01*
X147870150Y-112152933D02*
X148060626Y-112867219D01*
X148060626Y-112867219D02*
X148298722Y-111867219D01*
X149108245Y-112867219D02*
X149108245Y-112343409D01*
X149108245Y-112343409D02*
X149060626Y-112248171D01*
X149060626Y-112248171D02*
X148965388Y-112200552D01*
X148965388Y-112200552D02*
X148774912Y-112200552D01*
X148774912Y-112200552D02*
X148679674Y-112248171D01*
X149108245Y-112819600D02*
X149013007Y-112867219D01*
X149013007Y-112867219D02*
X148774912Y-112867219D01*
X148774912Y-112867219D02*
X148679674Y-112819600D01*
X148679674Y-112819600D02*
X148632055Y-112724361D01*
X148632055Y-112724361D02*
X148632055Y-112629123D01*
X148632055Y-112629123D02*
X148679674Y-112533885D01*
X148679674Y-112533885D02*
X148774912Y-112486266D01*
X148774912Y-112486266D02*
X149013007Y-112486266D01*
X149013007Y-112486266D02*
X149108245Y-112438647D01*
X149489198Y-112200552D02*
X149727293Y-112867219D01*
X149965388Y-112200552D02*
X149727293Y-112867219D01*
X149727293Y-112867219D02*
X149632055Y-113105314D01*
X149632055Y-113105314D02*
X149584436Y-113152933D01*
X149584436Y-113152933D02*
X149489198Y-113200552D01*
X150346341Y-112771980D02*
X150393960Y-112819600D01*
X150393960Y-112819600D02*
X150346341Y-112867219D01*
X150346341Y-112867219D02*
X150298722Y-112819600D01*
X150298722Y-112819600D02*
X150346341Y-112771980D01*
X150346341Y-112771980D02*
X150346341Y-112867219D01*
X150346341Y-112486266D02*
X150298722Y-111914838D01*
X150298722Y-111914838D02*
X150346341Y-111867219D01*
X150346341Y-111867219D02*
X150393960Y-111914838D01*
X150393960Y-111914838D02*
X150346341Y-112486266D01*
X150346341Y-112486266D02*
X150346341Y-111867219D01*
D11*
X145333333Y-101824819D02*
X145000000Y-101348628D01*
X144761905Y-101824819D02*
X144761905Y-100824819D01*
X144761905Y-100824819D02*
X145142857Y-100824819D01*
X145142857Y-100824819D02*
X145238095Y-100872438D01*
X145238095Y-100872438D02*
X145285714Y-100920057D01*
X145285714Y-100920057D02*
X145333333Y-101015295D01*
X145333333Y-101015295D02*
X145333333Y-101158152D01*
X145333333Y-101158152D02*
X145285714Y-101253390D01*
X145285714Y-101253390D02*
X145238095Y-101301009D01*
X145238095Y-101301009D02*
X145142857Y-101348628D01*
X145142857Y-101348628D02*
X144761905Y-101348628D01*
X146285714Y-101824819D02*
X145714286Y-101824819D01*
X146000000Y-101824819D02*
X146000000Y-100824819D01*
X146000000Y-100824819D02*
X145904762Y-100967676D01*
X145904762Y-100967676D02*
X145809524Y-101062914D01*
X145809524Y-101062914D02*
X145714286Y-101110533D01*
X130976667Y-101447200D02*
X131119524Y-101494819D01*
X131119524Y-101494819D02*
X131357619Y-101494819D01*
X131357619Y-101494819D02*
X131452857Y-101447200D01*
X131452857Y-101447200D02*
X131500476Y-101399580D01*
X131500476Y-101399580D02*
X131548095Y-101304342D01*
X131548095Y-101304342D02*
X131548095Y-101209104D01*
X131548095Y-101209104D02*
X131500476Y-101113866D01*
X131500476Y-101113866D02*
X131452857Y-101066247D01*
X131452857Y-101066247D02*
X131357619Y-101018628D01*
X131357619Y-101018628D02*
X131167143Y-100971009D01*
X131167143Y-100971009D02*
X131071905Y-100923390D01*
X131071905Y-100923390D02*
X131024286Y-100875771D01*
X131024286Y-100875771D02*
X130976667Y-100780533D01*
X130976667Y-100780533D02*
X130976667Y-100685295D01*
X130976667Y-100685295D02*
X131024286Y-100590057D01*
X131024286Y-100590057D02*
X131071905Y-100542438D01*
X131071905Y-100542438D02*
X131167143Y-100494819D01*
X131167143Y-100494819D02*
X131405238Y-100494819D01*
X131405238Y-100494819D02*
X131548095Y-100542438D01*
X131881429Y-100494819D02*
X132119524Y-101494819D01*
X132119524Y-101494819D02*
X132310000Y-100780533D01*
X132310000Y-100780533D02*
X132500476Y-101494819D01*
X132500476Y-101494819D02*
X132738572Y-100494819D01*
X133643333Y-101494819D02*
X133071905Y-101494819D01*
X133357619Y-101494819D02*
X133357619Y-100494819D01*
X133357619Y-100494819D02*
X133262381Y-100637676D01*
X133262381Y-100637676D02*
X133167143Y-100732914D01*
X133167143Y-100732914D02*
X133071905Y-100780533D01*
X133571905Y-110454819D02*
X133571905Y-109454819D01*
X133571905Y-109454819D02*
X133810000Y-109454819D01*
X133810000Y-109454819D02*
X133952857Y-109502438D01*
X133952857Y-109502438D02*
X134048095Y-109597676D01*
X134048095Y-109597676D02*
X134095714Y-109692914D01*
X134095714Y-109692914D02*
X134143333Y-109883390D01*
X134143333Y-109883390D02*
X134143333Y-110026247D01*
X134143333Y-110026247D02*
X134095714Y-110216723D01*
X134095714Y-110216723D02*
X134048095Y-110311961D01*
X134048095Y-110311961D02*
X133952857Y-110407200D01*
X133952857Y-110407200D02*
X133810000Y-110454819D01*
X133810000Y-110454819D02*
X133571905Y-110454819D01*
X135095714Y-110454819D02*
X134524286Y-110454819D01*
X134810000Y-110454819D02*
X134810000Y-109454819D01*
X134810000Y-109454819D02*
X134714762Y-109597676D01*
X134714762Y-109597676D02*
X134619524Y-109692914D01*
X134619524Y-109692914D02*
X134524286Y-109740533D01*
X145453333Y-109454819D02*
X145120000Y-108978628D01*
X144881905Y-109454819D02*
X144881905Y-108454819D01*
X144881905Y-108454819D02*
X145262857Y-108454819D01*
X145262857Y-108454819D02*
X145358095Y-108502438D01*
X145358095Y-108502438D02*
X145405714Y-108550057D01*
X145405714Y-108550057D02*
X145453333Y-108645295D01*
X145453333Y-108645295D02*
X145453333Y-108788152D01*
X145453333Y-108788152D02*
X145405714Y-108883390D01*
X145405714Y-108883390D02*
X145358095Y-108931009D01*
X145358095Y-108931009D02*
X145262857Y-108978628D01*
X145262857Y-108978628D02*
X144881905Y-108978628D01*
X145834286Y-108550057D02*
X145881905Y-108502438D01*
X145881905Y-108502438D02*
X145977143Y-108454819D01*
X145977143Y-108454819D02*
X146215238Y-108454819D01*
X146215238Y-108454819D02*
X146310476Y-108502438D01*
X146310476Y-108502438D02*
X146358095Y-108550057D01*
X146358095Y-108550057D02*
X146405714Y-108645295D01*
X146405714Y-108645295D02*
X146405714Y-108740533D01*
X146405714Y-108740533D02*
X146358095Y-108883390D01*
X146358095Y-108883390D02*
X145786667Y-109454819D01*
X145786667Y-109454819D02*
X146405714Y-109454819D01*
X156786666Y-94994819D02*
X156786666Y-95709104D01*
X156786666Y-95709104D02*
X156739047Y-95851961D01*
X156739047Y-95851961D02*
X156643809Y-95947200D01*
X156643809Y-95947200D02*
X156500952Y-95994819D01*
X156500952Y-95994819D02*
X156405714Y-95994819D01*
X157786666Y-95994819D02*
X157215238Y-95994819D01*
X157500952Y-95994819D02*
X157500952Y-94994819D01*
X157500952Y-94994819D02*
X157405714Y-95137676D01*
X157405714Y-95137676D02*
X157310476Y-95232914D01*
X157310476Y-95232914D02*
X157215238Y-95280533D01*
D12*
%TO.C,R1*%
X142230000Y-97630000D02*
X142230000Y-97960000D01*
X142230000Y-100370000D02*
X142230000Y-100040000D01*
X148770000Y-97630000D02*
X142230000Y-97630000D01*
X148770000Y-97960000D02*
X148770000Y-97630000D01*
X148770000Y-100040000D02*
X148770000Y-100370000D01*
X148770000Y-100370000D02*
X142230000Y-100370000D01*
%TO.C,SW1*%
X128810000Y-95250000D02*
X128810000Y-96750000D01*
X130060000Y-99250000D02*
X134560000Y-99250000D01*
X134560000Y-92750000D02*
X130060000Y-92750000D01*
X135810000Y-96750000D02*
X135810000Y-95250000D01*
%TO.C,D1*%
X132980000Y-105264000D02*
X132980000Y-105420000D01*
X132980000Y-107580000D02*
X132980000Y-107736000D01*
X132980000Y-105264484D02*
G75*
G02*
X136211437Y-105420000I1560000J-1235516D01*
G01*
X133499039Y-105420000D02*
G75*
G02*
X135580961Y-105420000I1040961J-1080000D01*
G01*
X135580961Y-107580000D02*
G75*
G02*
X133499039Y-107580000I-1040961J1080000D01*
G01*
X136211437Y-107580000D02*
G75*
G02*
X132980000Y-107735516I-1671437J1080000D01*
G01*
%TO.C,R2*%
X142350000Y-105130000D02*
X148890000Y-105130000D01*
X142350000Y-105460000D02*
X142350000Y-105130000D01*
X142350000Y-107540000D02*
X142350000Y-107870000D01*
X142350000Y-107870000D02*
X148890000Y-107870000D01*
X148890000Y-105130000D02*
X148890000Y-105460000D01*
X148890000Y-107870000D02*
X148890000Y-107540000D01*
%TO.C,J1*%
X155740000Y-97080000D02*
X157120000Y-97080000D01*
X155740000Y-98460000D02*
X155740000Y-97080000D01*
X155740000Y-99730000D02*
X155740000Y-107460000D01*
X155740000Y-99730000D02*
X158500000Y-99730000D01*
X155740000Y-107460000D02*
X158500000Y-107460000D01*
X158500000Y-99730000D02*
X158500000Y-107460000D01*
%TD*%
M02*
